<mxfile host="app.diagrams.net" modified="2021-04-18T02:06:18.571Z" agent="5.0 (Windows NT 10.0; Win64; x64) AppleWebKit/537.36 (KHTML, like Gecko) Chrome/89.0.4389.128 Safari/537.36" etag="0GuHeQXdplEhdB0yvZA6" version="14.6.0" type="github">
  <diagram id="AxgMR8E1Wx8xZ-haz2gc" name="Page-1">
    <mxGraphModel dx="2622" dy="1962" grid="0" gridSize="10" guides="1" tooltips="1" connect="1" arrows="1" fold="1" page="0" pageScale="1" pageWidth="827" pageHeight="1169" math="0" shadow="0">
      <root>
        <mxCell id="0" />
        <mxCell id="1" parent="0" />
        <mxCell id="Cryf7olJHlNcYrcqDk_B-13" value="&lt;blockquote&gt;&lt;br&gt;&lt;/blockquote&gt;" style="rounded=0;whiteSpace=wrap;html=1;strokeWidth=3;" parent="1" vertex="1">
          <mxGeometry x="-578.88" y="-832" width="421.88" height="114.5" as="geometry" />
        </mxCell>
        <mxCell id="Cryf7olJHlNcYrcqDk_B-1" value="&lt;blockquote&gt;&lt;br&gt;&lt;/blockquote&gt;" style="rounded=0;whiteSpace=wrap;html=1;strokeWidth=3;" parent="1" vertex="1">
          <mxGeometry x="-578.88" y="-567.5" width="422.88" height="160.5" as="geometry" />
        </mxCell>
        <mxCell id="Cryf7olJHlNcYrcqDk_B-2" value="&lt;p&gt;&lt;font style=&quot;font-size: 21px&quot;&gt;订阅模块&lt;/font&gt;&lt;/p&gt;" style="rounded=0;whiteSpace=wrap;html=1;strokeWidth=3;" parent="1" vertex="1">
          <mxGeometry x="-348" y="-747.5" width="165.12" height="30" as="geometry" />
        </mxCell>
        <mxCell id="Cryf7olJHlNcYrcqDk_B-3" value="&lt;p&gt;&lt;font style=&quot;font-size: 21px&quot;&gt;通知模块&lt;/font&gt;&lt;/p&gt;" style="rounded=0;whiteSpace=wrap;html=1;strokeWidth=3;" parent="1" vertex="1">
          <mxGeometry x="-345" y="-567.5" width="162.12" height="30" as="geometry" />
        </mxCell>
        <mxCell id="Cryf7olJHlNcYrcqDk_B-4" value="" style="endArrow=classic;html=1;exitX=0.75;exitY=0;exitDx=0;exitDy=0;strokeWidth=3;entryX=0.75;entryY=1;entryDx=0;entryDy=0;" parent="1" source="Cryf7olJHlNcYrcqDk_B-3" target="Cryf7olJHlNcYrcqDk_B-2" edge="1">
          <mxGeometry width="50" height="50" relative="1" as="geometry">
            <mxPoint x="-513.13" y="-523.51" as="sourcePoint" />
            <mxPoint x="-294" y="-717" as="targetPoint" />
          </mxGeometry>
        </mxCell>
        <mxCell id="Cryf7olJHlNcYrcqDk_B-5" value="" style="endArrow=classic;html=1;entryX=0.235;entryY=0.017;entryDx=0;entryDy=0;strokeWidth=3;exitX=0.25;exitY=1;exitDx=0;exitDy=0;entryPerimeter=0;" parent="1" source="Cryf7olJHlNcYrcqDk_B-2" target="Cryf7olJHlNcYrcqDk_B-3" edge="1">
          <mxGeometry width="50" height="50" relative="1" as="geometry">
            <mxPoint x="-378.13" y="-647.5" as="sourcePoint" />
            <mxPoint x="-571.0500000000001" y="-522.3399999999999" as="targetPoint" />
          </mxGeometry>
        </mxCell>
        <mxCell id="Cryf7olJHlNcYrcqDk_B-8" value="&lt;span style=&quot;color: rgb(0 , 0 , 0) ; font-family: &amp;#34;helvetica&amp;#34; ; font-size: 21px ; font-style: normal ; font-weight: 400 ; letter-spacing: normal ; text-align: center ; text-indent: 0px ; text-transform: none ; word-spacing: 0px ; background-color: rgb(248 , 249 , 250) ; display: inline ; float: none&quot;&gt;订阅YANG&lt;br&gt;模型&lt;/span&gt;" style="text;whiteSpace=wrap;html=1;" parent="1" vertex="1">
          <mxGeometry x="-382" y="-673" width="180" height="30" as="geometry" />
        </mxCell>
        <mxCell id="Cryf7olJHlNcYrcqDk_B-14" value="&lt;p&gt;&lt;font style=&quot;font-size: 21px&quot;&gt;配置提交模块&lt;/font&gt;&lt;/p&gt;" style="rounded=0;whiteSpace=wrap;html=1;strokeWidth=3;" parent="1" vertex="1">
          <mxGeometry x="-552" y="-747.5" width="177" height="30" as="geometry" />
        </mxCell>
        <mxCell id="Cryf7olJHlNcYrcqDk_B-15" value="" style="endArrow=classic;html=1;exitX=0.75;exitY=0;exitDx=0;exitDy=0;strokeWidth=3;entryX=0.727;entryY=1.026;entryDx=0;entryDy=0;entryPerimeter=0;" parent="1" source="Cryf7olJHlNcYrcqDk_B-24" target="Cryf7olJHlNcYrcqDk_B-14" edge="1">
          <mxGeometry width="50" height="50" relative="1" as="geometry">
            <mxPoint x="-472.2500000000001" y="-568.01" as="sourcePoint" />
            <mxPoint x="-424" y="-716" as="targetPoint" />
          </mxGeometry>
        </mxCell>
        <mxCell id="Cryf7olJHlNcYrcqDk_B-16" value="" style="endArrow=classic;html=1;entryX=0.14;entryY=-0.045;entryDx=0;entryDy=0;strokeWidth=3;exitX=0.25;exitY=1;exitDx=0;exitDy=0;entryPerimeter=0;" parent="1" target="Cryf7olJHlNcYrcqDk_B-24" edge="1">
          <mxGeometry width="50" height="50" relative="1" as="geometry">
            <mxPoint x="-528.5900000000003" y="-718.01" as="sourcePoint" />
            <mxPoint x="-528.8999999999997" y="-567.5" as="targetPoint" />
          </mxGeometry>
        </mxCell>
        <mxCell id="Cryf7olJHlNcYrcqDk_B-21" value="&lt;div style=&quot;text-align: center&quot;&gt;&lt;font face=&quot;helvetica&quot;&gt;&lt;span style=&quot;font-size: 21px ; background-color: rgb(248 , 249 , 250)&quot;&gt;通知模型变化&lt;/span&gt;&lt;/font&gt;&lt;/div&gt;" style="text;whiteSpace=wrap;html=1;" parent="1" vertex="1">
          <mxGeometry x="-239" y="-673" width="180" height="30" as="geometry" />
        </mxCell>
        <mxCell id="Cryf7olJHlNcYrcqDk_B-23" value="&lt;font style=&quot;font-size: 21px&quot;&gt;网络管理员A&lt;/font&gt;" style="fontColor=#0066CC;verticalAlign=top;verticalLabelPosition=bottom;labelPosition=center;align=center;html=1;outlineConnect=0;fillColor=#CCCCCC;strokeColor=#6881B3;gradientColor=none;gradientDirection=north;strokeWidth=2;shape=mxgraph.networks.pc;" parent="1" vertex="1">
          <mxGeometry x="-803" y="-520.5" width="100" height="70" as="geometry" />
        </mxCell>
        <mxCell id="Cryf7olJHlNcYrcqDk_B-24" value="&lt;p&gt;&lt;span style=&quot;font-size: 21px&quot;&gt;接收模块&lt;/span&gt;&lt;/p&gt;" style="rounded=0;whiteSpace=wrap;html=1;strokeWidth=3;" parent="1" vertex="1">
          <mxGeometry x="-553" y="-567.5" width="174" height="30" as="geometry" />
        </mxCell>
        <mxCell id="Cryf7olJHlNcYrcqDk_B-25" value="&lt;blockquote&gt;&lt;span style=&quot;font-size: 21px&quot;&gt;接入层&lt;/span&gt;&lt;/blockquote&gt;" style="rounded=0;whiteSpace=wrap;html=1;strokeWidth=3;" parent="1" vertex="1">
          <mxGeometry x="-578.88" y="-513" width="45.88" height="90" as="geometry" />
        </mxCell>
        <mxCell id="Cryf7olJHlNcYrcqDk_B-28" value="" style="shape=flexArrow;endArrow=classic;html=1;" parent="1" edge="1">
          <mxGeometry width="50" height="50" relative="1" as="geometry">
            <mxPoint x="-690" y="-470.5" as="sourcePoint" />
            <mxPoint x="-586" y="-470.5" as="targetPoint" />
          </mxGeometry>
        </mxCell>
        <mxCell id="Cryf7olJHlNcYrcqDk_B-29" value="&lt;div style=&quot;text-align: center&quot;&gt;&lt;font face=&quot;helvetica&quot;&gt;&lt;span style=&quot;font-size: 21px ; background-color: rgb(248 , 249 , 250)&quot;&gt;sysrepocfg&lt;/span&gt;&lt;/font&gt;&lt;/div&gt;&lt;div style=&quot;text-align: center&quot;&gt;&lt;font face=&quot;helvetica&quot;&gt;&lt;span style=&quot;font-size: 21px ; background-color: rgb(248 , 249 , 250)&quot;&gt;sysrepoctl&lt;/span&gt;&lt;/font&gt;&lt;/div&gt;" style="text;whiteSpace=wrap;html=1;" parent="1" vertex="1">
          <mxGeometry x="-694" y="-543" width="180" height="30" as="geometry" />
        </mxCell>
        <mxCell id="Cryf7olJHlNcYrcqDk_B-30" value="&lt;div style=&quot;text-align: center&quot;&gt;&lt;font face=&quot;helvetica&quot;&gt;&lt;span style=&quot;font-size: 21px ; background-color: rgb(248 , 249 , 250)&quot;&gt;参数提交&lt;/span&gt;&lt;/font&gt;&lt;/div&gt;" style="text;whiteSpace=wrap;html=1;" parent="1" vertex="1">
          <mxGeometry x="-588.5" y="-666" width="180" height="30" as="geometry" />
        </mxCell>
        <mxCell id="Cryf7olJHlNcYrcqDk_B-31" value="&lt;div style=&quot;text-align: center&quot;&gt;&lt;font face=&quot;helvetica&quot;&gt;&lt;span style=&quot;font-size: 21px ; background-color: rgb(248 , 249 , 250)&quot;&gt;回复&lt;/span&gt;&lt;/font&gt;&lt;/div&gt;" style="text;whiteSpace=wrap;html=1;" parent="1" vertex="1">
          <mxGeometry x="-450" y="-666" width="180" height="30" as="geometry" />
        </mxCell>
        <mxCell id="Cryf7olJHlNcYrcqDk_B-32" value="&lt;p&gt;&lt;font style=&quot;font-size: 21px&quot;&gt;JSON配置模块&lt;/font&gt;&lt;/p&gt;" style="rounded=0;whiteSpace=wrap;html=1;strokeWidth=3;" parent="1" vertex="1">
          <mxGeometry x="-578" y="-832" width="159" height="39" as="geometry" />
        </mxCell>
        <mxCell id="Cryf7olJHlNcYrcqDk_B-33" value="&lt;font style=&quot;font-size: 21px&quot;&gt;网络管理员B&lt;/font&gt;" style="fontColor=#0066CC;verticalAlign=top;verticalLabelPosition=bottom;labelPosition=center;align=center;html=1;outlineConnect=0;fillColor=#CCCCCC;strokeColor=#6881B3;gradientColor=none;gradientDirection=north;strokeWidth=2;shape=mxgraph.networks.pc;" parent="1" vertex="1">
          <mxGeometry x="-803" y="-809.75" width="100" height="70" as="geometry" />
        </mxCell>
        <mxCell id="Cryf7olJHlNcYrcqDk_B-34" value="" style="shape=flexArrow;endArrow=classic;html=1;" parent="1" edge="1">
          <mxGeometry width="50" height="50" relative="1" as="geometry">
            <mxPoint x="-689" y="-781.75" as="sourcePoint" />
            <mxPoint x="-585" y="-781.75" as="targetPoint" />
          </mxGeometry>
        </mxCell>
        <mxCell id="Cryf7olJHlNcYrcqDk_B-35" value="&lt;div style=&quot;text-align: center&quot;&gt;&lt;font face=&quot;helvetica&quot;&gt;&lt;span style=&quot;font-size: 21px ; background-color: rgb(248 , 249 , 250)&quot;&gt;JSON文件&lt;/span&gt;&lt;/font&gt;&lt;/div&gt;" style="text;whiteSpace=wrap;html=1;" parent="1" vertex="1">
          <mxGeometry x="-690" y="-827.5" width="180" height="30" as="geometry" />
        </mxCell>
        <mxCell id="Cryf7olJHlNcYrcqDk_B-36" value="" style="shape=flexArrow;endArrow=classic;html=1;exitX=0.5;exitY=1;exitDx=0;exitDy=0;entryX=0.302;entryY=-0.183;entryDx=0;entryDy=0;entryPerimeter=0;" parent="1" source="Cryf7olJHlNcYrcqDk_B-32" target="Cryf7olJHlNcYrcqDk_B-14" edge="1">
          <mxGeometry width="50" height="50" relative="1" as="geometry">
            <mxPoint x="-619" y="-718" as="sourcePoint" />
            <mxPoint x="-569" y="-768" as="targetPoint" />
          </mxGeometry>
        </mxCell>
        <mxCell id="Cryf7olJHlNcYrcqDk_B-37" value="&lt;span style=&quot;color: rgb(0, 0, 0); font-family: helvetica; font-size: 21px; font-style: normal; font-weight: 400; letter-spacing: normal; text-align: center; text-indent: 0px; text-transform: none; word-spacing: 0px; background-color: rgb(255, 255, 255); display: inline; float: none;&quot;&gt;Sysrepo数据库&lt;/span&gt;" style="text;whiteSpace=wrap;html=1;" parent="1" vertex="1">
          <mxGeometry x="-148" y="-506" width="160" height="31" as="geometry" />
        </mxCell>
        <mxCell id="Cryf7olJHlNcYrcqDk_B-38" value="&lt;span style=&quot;color: rgb(0, 0, 0); font-family: helvetica; font-size: 21px; font-style: normal; font-weight: 400; letter-spacing: normal; text-align: center; text-indent: 0px; text-transform: none; word-spacing: 0px; background-color: rgb(255, 255, 255); display: inline; float: none;&quot;&gt;eATS交换机&lt;/span&gt;" style="text;whiteSpace=wrap;html=1;" parent="1" vertex="1">
          <mxGeometry x="-135" y="-793" width="134" height="31" as="geometry" />
        </mxCell>
        <mxCell id="Cryf7olJHlNcYrcqDk_B-41" value="" style="rounded=0;whiteSpace=wrap;html=1;" parent="1" vertex="1">
          <mxGeometry x="-422" y="-526" width="71" height="81" as="geometry" />
        </mxCell>
        <mxCell id="Cryf7olJHlNcYrcqDk_B-47" value="" style="rounded=0;whiteSpace=wrap;html=1;" parent="1" vertex="1">
          <mxGeometry x="-412" y="-516" width="71" height="81" as="geometry" />
        </mxCell>
        <mxCell id="Cryf7olJHlNcYrcqDk_B-48" value="" style="rounded=0;whiteSpace=wrap;html=1;" parent="1" vertex="1">
          <mxGeometry x="-402" y="-506" width="71" height="81" as="geometry" />
        </mxCell>
        <mxCell id="Cryf7olJHlNcYrcqDk_B-49" value="" style="rounded=0;whiteSpace=wrap;html=1;" parent="1" vertex="1">
          <mxGeometry x="-392" y="-496" width="71" height="81" as="geometry" />
        </mxCell>
        <mxCell id="Cryf7olJHlNcYrcqDk_B-51" value="&lt;span style=&quot;color: rgb(0 , 0 , 0) ; font-family: &amp;#34;helvetica&amp;#34; ; font-size: 21px ; font-style: normal ; font-weight: 400 ; letter-spacing: normal ; text-align: center ; text-indent: 0px ; text-transform: none ; word-spacing: 0px ; background-color: rgb(255 , 255 , 255) ; display: inline ; float: none&quot;&gt;YANG模型存储&lt;/span&gt;" style="text;whiteSpace=wrap;html=1;" parent="1" vertex="1">
          <mxGeometry x="-444" y="-481" width="160" height="27" as="geometry" />
        </mxCell>
        <mxCell id="Cryf7olJHlNcYrcqDk_B-53" value="" style="shape=flexArrow;endArrow=classic;html=1;" parent="1" edge="1">
          <mxGeometry width="50" height="50" relative="1" as="geometry">
            <mxPoint x="-529" y="-468.2" as="sourcePoint" />
            <mxPoint x="-451" y="-468" as="targetPoint" />
          </mxGeometry>
        </mxCell>
      </root>
    </mxGraphModel>
  </diagram>
</mxfile>
